<?xml version="1.0" encoding="utf-8"?>
<!-- Generator: Adobe Illustrator 28.1.0, SVG Export Plug-In . SVG Version: 6.00 Build 0)  -->
<svg version="1.1" id="Layer_2" xmlns="http://www.w3.org/2000/svg" xmlns:xlink="http://www.w3.org/1999/xlink" x="0px" y="0px"
	 viewBox="0 0 350.56 119.54" style="enable-background:new 0 0 350.56 119.54;" xml:space="preserve">
<style type="text/css">
	.st0{fill:#E6B551;}
	.st1{fill:#E7B759;}
	.st2{fill:#92201F;}
	.st3{fill:#E38979;}
	.st4{fill:#FFFFFF;}
	.st5{fill:#F4EBE9;}
</style>
<g>
	<g>
		<path class="st0" d="M128.54,54.35c-0.6,0.65-0.47,1.51-0.66,2.28c-0.76,2.99-1.6,5.94-3.27,8.58c-0.4,0.63-0.84,1.22-1.5,1.6
			c-0.61,0.36-0.85,0.1-0.9-0.51c0,0-0.01,0.02-0.01,0.02c0.89-1.6,1.17-3.43,1.89-5.11c0.92-2.16,1.96-4.25,3.33-6.17
			c0.29-0.4,0.55-0.88,1.13-0.93C128.54,54.19,128.54,54.27,128.54,54.35z"/>
		<path class="st1" d="M102.46,5.25c0.05,0.71,0.71,0.97,1.1,1.41c1.28,1.43,2.46,2.92,3.13,4.75c0.17,0.48,0.34,0.95-0.03,1.61
			c-2.19-2.26-3.9-4.67-4.43-7.77C102.3,5.25,102.38,5.25,102.46,5.25z"/>
		<path class="st0" d="M29.38,5.25c-0.69,3.01-2.3,5.45-4.6,7.72c-0.33-1.31,0.24-2.21,0.73-3.09c0.77-1.41,1.87-2.58,2.96-3.75
			c0.25-0.26,0.7-0.4,0.67-0.88C29.22,5.25,29.3,5.25,29.38,5.25z"/>
		<path class="st2" d="M86.71,72.32c1.09,3.16,0.53,6.02-1.74,8.42c-2.19,2.31-4.94,3.51-8.17,3.48c-2.31-0.02-4.04-1.47-4.41-3.71
			c-0.07-0.42,0-0.92-0.51-1.09c-0.44-0.14-0.67,0.28-0.98,0.5c-4.96,3.36-10.23,5.83-16.38,5.87c-1.21,0.01-2.43,0-3.99,0
			c2.69-0.65,5.08-1.1,7.41-1.78c3.44-1.01,6.36-2.94,9.3-4.84c0.71-0.46,0.97-1.14,0.95-2.01c-0.05-2.55-1.01-4.69-2.7-6.56
			c-3.25-3.6-6.86-6.87-9.96-10.63c-0.37-0.45-0.73-0.92-1.11-1.36c-2-2.31-2.07-4.83-0.62-7.37c0.71-1.26,0.85-2.21-0.05-3.49
			c-1.7-2.42-2.04-5.02-0.2-7.61c0.39-0.55,0.36-1.15,0.11-1.78c-1.19-3.07-1.11-6.07,0.81-8.81c1.22-1.74,1.3-3.63,1.2-5.6
			c-0.13-2.57,0.55-4.87,2.2-6.86c0.45-0.54,0.91-1.07,1.58-1.37c1.91-0.84,3.25,0.08,3.04,2.13c-0.08,0.77-0.63,1.16-1.35,1.24
			c-0.62,0.07-1.25,0.09-1.88,0.04c-0.82-0.06-1.12,0.33-1.21,1.07c-0.42,3.68,0.31,6.93,2.69,9.98c4.13,5.28,8.73,10.14,12.99,15.3
			c2.84,3.45,5.04,7.39,5.9,11.83c0.95,4.93,0.05,9.63-2.5,13.99c-0.77,1.31-1.5,2.65-2.33,3.92c-0.61,0.93-0.86,1.89-0.78,2.99
			c0.1,1.39,0.55,1.91,1.93,1.97c2.53,0.11,4.88-0.64,5.83-3.62c0.07-0.22,0.15-0.34,0.38-0.36c0.25-0.02,0.34,0.12,0.36,0.34
			c0.01,0.12,0.01,0.25,0.07,0.34c0.28,0.46-0.14,1.37,0.72,1.4c0.75,0.03,1.1-0.66,1.4-1.26c0.38-0.77,0.71-1.56,1.1-2.32
			C86.18,73.93,86.39,73.12,86.71,72.32z M76.9,65.96c0.8-0.96,0.75-1.98,0.69-2.99c-0.29-4.95-2.15-9.3-5.06-13.25
			c-3.09-4.2-6.63-8.02-9.93-12.04c-1.76-2.15-3.48-4.33-5.24-6.48c-0.23-0.28-0.45-0.9-0.98-0.48c-1.11,0.89-2.3,4.27-1.01,5.77
			c1.78,2.08,3.4,4.29,5.33,6.25c2.31,2.34,4.5,4.79,6.6,7.32c3.05,3.68,5.59,7.71,8.01,11.82C76.05,63.12,76.39,64.53,76.9,65.96z
			 M74.33,70.07c0.78-2.83,0.24-5.22-1.11-7.48c-2.58-4.32-5.86-8.09-9.32-11.72c-2.7-2.83-5.2-5.84-7.63-8.9
			c-0.74-0.94-0.9-0.92-1.53,0.09c-0.72,1.18-0.49,2.29,0.21,3.4c2.15,3.38,4.72,6.4,7.52,9.26C66.96,59.32,71.62,63.8,74.33,70.07z
			 M71.06,75.08c0.58-1.54,0.78-2.77,0.49-4.05c-0.38-1.66-1.27-3.09-2.19-4.49c-3.55-5.45-8.66-9.53-12.81-14.46
			c-0.13-0.16-0.26-0.4-0.56-0.2c-1.03,0.69-1.34,3.08-0.45,4.02c1.33,1.43,2.67,2.86,4.08,4.21c2.72,2.6,5.31,5.3,7.65,8.24
			C68.82,70.3,70.19,72.36,71.06,75.08z"/>
		<path class="st2" d="M57.44,77.09c0.46,0.23,0.58,1.08,1.28,0.8c0.64-0.25,0.73-0.89,0.7-1.49c-0.03-0.74,0.42-0.52,0.75-0.38
			c0.65,0.27,1.22,0.22,1.72-0.28c0.52-0.52,0.38-1.09,0.2-1.74c-0.31-1.11-1.14-1.73-1.98-2.37c-0.69-0.52-1.17-2.92-0.76-3.66
			c0.2-0.35,0.41-0.27,0.65-0.06c1.93,1.74,3.7,3.62,4.46,6.19c0.43,1.43,0.15,2.92-0.9,3.94c-3.43,3.32-7.47,5.49-12.36,5.65
			c-2.11,0.07-3.95-1.95-3.95-4.08c0-0.12-0.02-0.24,0-0.35c0.36-1.83-0.19-3.12-1.84-4.2c-1.39-0.91-2.13-2.51-2.31-4.19
			c-0.31-2.78,0.23-5.36,2.15-7.53c1.44-1.62,3.95-2.43,5.98-1.63c2.72,1.08,4.56,3.06,4.85,6.07c0.26,2.76-0.48,5.25-2.61,7.21
			c-1.07,0.99-2.3,1.58-3.76,1.69c-0.47,0.04-1.13-0.17-1.23,0.55c-0.09,0.61-0.07,1.25,0.49,1.72c1.36,1.16,4.35,1.02,5.58-0.28
			c0.14-0.15,0.17-0.38,0.53-0.28C56.92,78.88,57.08,78.78,57.44,77.09z M49.65,72.47c1.57-0.09,3.34-0.79,4.36-2.8
			c0.36-0.71,0.26-1.34-0.31-1.92c-1.81-1.84-4-2.52-6.52-2.09c-1.31,0.22-2.24,1.42-2.28,2.75C44.82,71.18,46.15,72.46,49.65,72.47
			z"/>
		<path class="st1" d="M113.06,87.55c-1.52-0.22-1.59-0.34-1.18-1.77c0.19-0.67,0.33-1.36,0.49-2.05c0.37,0.51,0.12,1.09,0.19,1.63
			c-0.06,0.08-0.11,0.17-0.17,0.25c0.03,0.02,0.06,0.04,0.09,0.06c0.03-0.1,0.06-0.2,0.09-0.3c0,0,0.11,0,0.11,0l0.11,0
			c0.24,0.02,0.49,0.02,0.63-0.21c1.45-2.44,2.98-4.83,3.91-7.54c0.38-0.31,0.57-0.72,0.63-1.2c2.15-5.23,3.59-10.65,4.16-16.27
			c0.86-8.45,0.24-16.77-2.48-24.88c-1.57-4.67-3.75-9.01-6.64-12.98c-3.15-4.33-6.86-8.09-11.38-11.02
			c-0.13-0.08-0.23-0.21-0.34-0.31c0.02-0.12,0.04-0.24,0.05-0.37c3.38,2.25,6.6,4.72,9.33,7.75c3.2,3.56,6.2,7.28,7.87,11.87
			c0.07,0.19,0.24,0.17,0.39,0.2l0-0.02c-0.02,0.22-0.02,0.42,0.25,0.49l-0.02-0.01c0.79,2.61,1.91,5.12,2.49,7.79
			c0.1,0.46,0.23,0.91,0.35,1.36c0.01,1.04,0.68,2.01,0.31,3.1c-0.01,0.04,0.22,0.16,0.34,0.25c0.39,3.02,0.79,6.04,0.77,9.09
			c0.01,0.72,0.02,1.43,0.03,2.15c-0.12,3.94-0.72,7.82-1.23,11.72c0,0,0.01-0.02,0.01-0.02c-0.66,2.23-1.29,4.47-2,6.69
			c-0.45,1.41-1.01,2.78-1.53,4.17c-0.27,0.34-0.41,0.73-0.48,1.15C116.79,81.56,114.86,84.52,113.06,87.55z"/>
		<g>
			<path class="st2" d="M18.67,76.53c0.13-0.43,0.27-0.5,0.54-0.07c0.75,1.19,1.52,2.36,2.28,3.55c1.73,2.7,4.06,4.74,6.85,6.28
				c1.56,0.86,3.08,1.82,4.69,2.56c1.5,0.68,3.11,1.13,4.57,1.91c0.89,0.48,1.81,0.93,2.66,1.48c1.89,1.2,2,1.49,1.06,3.44
				c-0.35,0.73-0.11,0.92,0.49,1.16c7.25,2.82,14.68,4.24,22.54,3.95c7.77-0.29,15.27-1.58,22.6-4.12c1.04-0.36,1.08-0.71,0.64-1.59
				c-0.12-0.24-0.22-0.45-0.3-0.64c-0.4-0.99-0.15-1.32,1.06-2.1c2.61-1.68,5.54-2.69,8.38-3.87c2.69-1.12,5.32-2.35,7.8-3.9
				c2.92-1.83,4.72-4.63,6.6-7.37c0.22-0.32,0.36-0.74,0.65-0.96c0.45-0.34,0.25,0.22,0.37,0.36c0.34,2.37,0.41,4.75,0.22,7.14
				c-0.16,0.68-0.3,1.37-0.49,2.05c-0.41,1.43-0.34,1.55,1.18,1.77c0.25,0.18,0.54,0.13,0.82,0.12c1.37,0.37,2.72,0.11,4.07-0.08
				c1.77-0.31,3.37-1.06,4.93-1.97c-0.69,1.29-1.62,2.37-2.58,3.42c-3.3,3.61-7.11,6.58-11.29,9.1c-0.47,0.29-0.94,0.47-0.45,1.19
				c0.34,0.49-0.12,0.97-0.45,1.34c-0.71,0.79-1.59,1.39-2.48,1.95c-5.33,3.36-11.22,5.43-17.18,7.31c-8.92,2.81-18,4.64-27.41,4.33
				c-7.96-0.26-15.59-2.15-23.06-4.79c-4.31-1.52-8.53-3.26-12.45-5.64c-1.3-0.79-2.59-1.62-3.54-2.85
				c-0.29-0.38-0.73-0.86-0.53-1.24c0.55-1.06-0.24-1.29-0.85-1.72c-4.82-3.35-9.16-7.2-12.5-12.07c0.06-0.05,0.11-0.1,0.16-0.16
				c1.7,0.9,3.4,1.79,5.37,1.91c1.16,0.3,2.31,0.33,3.47,0c0.43,0.07,0.74-0.11,0.97-0.47c0.36-0.04,0.75,0.15,1.08-0.1
				c-0.21-0.76-0.42-1.5-0.63-2.24c0.05-0.25,0.07-0.49-0.08-0.71c-0.24-1.7-0.07-3.4-0.12-5.11
				C18.64,78.25,18.54,77.37,18.67,76.53z"/>
			<g>
				<path class="st3" d="M87.78,94.43c3.46-1.26,6.01-3.98,9.23-5.68c1.5-0.73,3.79-2.12,5.04-0.31c1.15,1.46,1.12,3.48,2.01,5.03
					c0.61,1.03,1.35,1.99,2.1,2.93c0.74,0.95,1.52,1.88,2.31,2.79c-1.63-1.78-3.27-3.57-4.55-5.63c-0.93-1.58-0.9-3.53-2.05-4.98
					c-0.38-0.45-0.83-0.87-1.42-0.8C95.58,88.49,92.4,93.01,87.78,94.43L87.78,94.43z"/>
			</g>
			<g>
				<path class="st3" d="M101.26,88.33c0.13,1.45-1.51,2.19-2.57,2.76c0,0-3.52,1.87-3.52,1.87c-2.38,1.18-4.72,2.43-7.13,3.56
					c2.31-1.32,4.68-2.51,7.02-3.78l3.56-1.8C99.68,90.38,101.3,89.75,101.26,88.33L101.26,88.33z"/>
			</g>
			<g>
				<path class="st3" d="M41.49,94.43c-4.62-1.42-7.8-5.94-12.67-6.65c-0.59-0.07-1.04,0.35-1.42,0.8c-1.15,1.44-1.12,3.4-2.05,4.98
					c-1.29,2.06-2.92,3.86-4.56,5.63c0.79-0.91,1.57-1.84,2.31-2.79c0.75-0.94,1.49-1.9,2.1-2.93c0.89-1.55,0.86-3.58,2.01-5.03
					c1.25-1.81,3.54-0.42,5.04,0.31C35.49,90.45,38.03,93.17,41.49,94.43L41.49,94.43z"/>
			</g>
			<g>
				<path class="st3" d="M28.01,88.33c-0.03,1.42,1.58,2.04,2.65,2.62c0,0,3.56,1.8,3.56,1.8c2.34,1.26,4.71,2.46,7.02,3.78
					c-3.46-1.65-7.25-3.61-10.65-5.43C29.52,90.52,27.87,89.78,28.01,88.33L28.01,88.33z"/>
			</g>
		</g>
		<path class="st1" d="M8.48,65.59c0.66-0.8,0.03-1.65-0.06-2.4c-0.36-2.94-0.51-5.89-0.73-8.84c0.11-0.79,0.11-1.57,0.03-2.36
			c0.19-3.03,0.39-6.05,0.95-9.04c0.05-0.26-0.02-0.54-0.03-0.81c0.44-0.55,0.49-1.22,0.54-1.88c0.7-3.12,1.77-6.12,2.88-9.11
			c0.35-0.56,1.1-1.04,0.4-1.83c0.01-0.08,0.02-0.17,0.04-0.25c0.65,0.59,0.69-0.16,0.83-0.43c1.35-2.67,2.97-5.16,4.87-7.45
			c2.65-3.2,5.51-6.19,9.05-8.45c0.05,0.06,0.09,0.12,0.14,0.17c-2.64,2.17-5.15,4.48-7.33,7.13c-0.48,0.59-1.08,1.11-1.26,1.9
			l0.01-0.01c-1.14,0.82-1.69,2.1-2.4,3.23c-4.52,7.23-6.91,15.15-7.54,23.63c-0.67,9.13,0.48,17.99,3.79,26.55
			c0.1,0.25,0.17,0.54,0.35,0.73c0.07,0.08,0.17-0.19,0.22-0.33c0.24,0.46,0.27,1.01,0.65,1.4c-0.49,0.55-0.08,1.03,0.15,1.48
			c1.18,2.34,2.38,4.66,3.58,6.99c0.05,0.37-0.22,0.45-0.48,0.54c-1.76-2.54-3.15-5.28-4.39-8.11c-0.1-0.42-0.22-0.83-0.5-1.17
			c-1.2-2.97-2.16-6.02-2.86-9.15c-0.12-0.53-0.17-1.12-0.9-1.19C8.47,66.22,8.47,65.9,8.48,65.59z"/>
		<path class="st0" d="M119.16,77.15c1.8-3.07,3.6-6.14,6.19-8.66c0.59-0.57,1.14-1.18,2.02-1.68c-0.45,1.71-1.15,3.16-1.88,4.58
			c-1.19,2.34-2.47,4.63-4.49,6.38c-0.63,0.54-1.3,1.2-2.29,0.76C118.86,78.07,119.01,77.61,119.16,77.15z"/>
		<path class="st0" d="M117.95,87.58c-1.35,0.19-2.71,0.45-4.07,0.08c0.26-1.06,1.18-1.62,1.86-2.35c2.03-2.18,4.29-4.08,6.93-5.49
			c0.4-0.21,0.77-0.52,1.44-0.49c-0.82,1.59-1.81,2.94-2.88,4.24c-1.01,1.24-2.03,2.47-3.32,3.43
			C117.63,87.22,117.34,87.43,117.95,87.58z"/>
		<path class="st0" d="M12.28,78.1c-0.87,0.72-1.54,0.1-2.16-0.39c-1.62-1.29-2.67-3.05-3.71-4.8c-1.06-1.78-1.81-3.72-2.6-5.63
			c-0.07-0.18-0.1-0.37,0.11-0.63c3.47,2.77,5.71,6.47,7.81,10.26C11.77,77.37,12.09,77.71,12.28,78.1z"/>
		<path class="st0" d="M13.61,87.24c-2.48-1.61-4.12-3.98-5.76-6.35c-0.37-0.54-0.69-1.12-0.93-1.79c4.11,1.77,7.26,4.7,9.99,8.15
			C15.81,87.63,14.71,87.57,13.61,87.24z"/>
		<path class="st0" d="M8.48,65.59c-0.01,0.31-0.01,0.63-0.02,0.94c-0.33,0.3-0.51,0.18-0.83-0.12c-1.37-1.32-2.06-3.01-2.77-4.71
			c-1.03-2.5-1.64-5.11-1.93-7.81C5.74,57.33,7.35,61.35,8.48,65.59z"/>
		<path class="st0" d="M13.87,77.15c-0.38-0.39-0.42-0.94-0.65-1.4c-1-4.15-0.9-8.15,1.71-12.12c0,3.01,0.05,5.71-0.02,8.41
			c-0.03,1.24,0.04,2.5-0.3,3.72C14.46,76.27,14.46,76.87,13.87,77.15z"/>
		<path class="st0" d="M116.76,76.52c-0.36-0.18-0.44-0.49-0.49-0.87c-0.46-3.81-0.08-7.62-0.08-11.45
			c2.51,3.66,2.55,7.64,1.54,11.76C117.41,76.15,117.09,76.33,116.76,76.52z"/>
		<path class="st0" d="M123.82,52.23c0.48-3.69,1.26-7.28,3.07-10.81c0.38,1.44,0.07,2.69,0,3.94c-0.14,2.5-0.54,4.97-1.5,7.3
			c-0.32,0.79-0.48,1.9-1.75,1.89C123.71,53.78,123.76,53,123.82,52.23z"/>
		<path class="st0" d="M7.5,54.34c-0.85,0.04-1.11-0.62-1.4-1.2c-1.26-2.5-1.56-5.22-1.79-7.95c-0.11-1.24-0.02-2.5-0.02-4.09
			c1.88,3.52,2.54,7.07,3.02,10.67C7.37,52.63,7.44,53.48,7.5,54.34z"/>
		<path class="st0" d="M117.21,54.22c2.3,2.04,3.17,4.4,3.55,6.99c0.21,1.43,0.26,2.88,0.04,4.31c-0.04,0.27,0.13,0.7-0.33,0.75
			c-0.37,0.04-0.5-0.32-0.66-0.58c-0.56-0.92-0.75-1.97-0.96-2.99C118.31,60,117.8,57.28,117.21,54.22z"/>
		<path class="st0" d="M13.85,54.32c-0.79,3.46-1.13,7-2.27,10.36c-0.19,0.55-0.46,1.39-0.98,1.32c-0.59-0.08-0.43-0.97-0.45-1.49
			c-0.13-3.61,0.47-7.02,3.01-9.82C13.32,54.52,13.45,54.31,13.85,54.32z"/>
		<path class="st0" d="M14.45,44.64c-1.39,3.06-2.27,6.19-4,8.95c-0.16,0.26-0.4,0.49-0.65,0.66c-0.32,0.21-0.55,0.18-0.62-0.31
			c-0.38-2.83,2.21-7.88,4.77-9.2C14.05,44.69,14.16,44.69,14.45,44.64z"/>
		<path class="st0" d="M112.56,85.36c-0.07-0.54,0.19-1.12-0.19-1.63c0.19-2.39,0.13-4.77-0.22-7.14c0.42,0.05,0.39-0.25,0.44-0.52
			c0.18-1.02,0.38-2.03,0.69-3.04c1.82,4.19,1.33,8.28-0.5,12.33c0,0-0.11,0-0.11,0L112.56,85.36L112.56,85.36z"/>
		<path class="st0" d="M116.73,44.71c1.49,0.63,2.39,1.57,3.12,2.68c1.24,1.9,1.88,4.01,2.06,6.27c0.02,0.31,0.26,0.77-0.2,0.91
			c-0.37,0.12-0.62-0.26-0.85-0.52c-0.1-0.11-0.19-0.25-0.27-0.38C118.98,50.89,118.07,47.83,116.73,44.71z"/>
		<path class="st0" d="M8.21,41.98c-0.92-0.95-0.94-2.23-1.05-3.4c-0.3-2.99,0.08-5.96,0.77-8.9c1.15,3.45,1.12,7.01,0.91,10.57
			C8.37,40.74,9.16,41.68,8.21,41.98z"/>
		<path class="st0" d="M122.34,38.61c0.01-2.46,0.02-4.93,0.6-7.34c0.1-0.41,0.22-0.8,0.4-1.44c0.47,1.03,0.49,1.91,0.59,2.76
			c0.32,2.64,0.51,5.3-0.11,7.92c-0.17,0.73-0.23,1.59-1.15,1.9C122.56,41.13,122.45,39.87,122.34,38.61z"/>
		<path class="st1" d="M18.67,76.53c-0.12,0.84-0.03,1.72-0.34,2.53c-0.55,1.65-0.61,3.32-0.23,5.01c0.05,0.23,0.21,0.15,0.36,0.09
			c0.15,0.22,0.13,0.47,0.08,0.71c-0.14,0.15-0.28,0.31-0.42,0.46c-1.99-4.49-2.17-9.65-0.41-12.55
			C18.29,74,17.92,75.42,18.67,76.53z"/>
		<path class="st0" d="M114.48,35.53c1.74,0.18,2.79,1,3.73,2c1.28,1.36,2.08,2.99,2.59,4.77c0.06,0.21,0.24,0.46,0.03,0.65
			c-0.25,0.23-0.51,0.06-0.75-0.07c-0.41-0.23-0.74-0.55-1.05-0.91C117.4,40.04,116.16,37.83,114.48,35.53z"/>
		<path class="st0" d="M16.79,35.39c-1.77,2.4-3.14,4.9-5.14,6.94c-0.3,0.31-0.74,0.67-1.12,0.42c-0.44-0.28-0.09-0.78,0.05-1.16
			c0.84-2.27,1.96-4.34,4.17-5.59C15.33,35.68,15.91,35.39,16.79,35.39z"/>
		<path class="st0" d="M118.91,30.4c-0.08-1.88-0.86-3.62-1.05-5.48c-0.17-1.7-0.15-3.39,0.02-5.11c1.02,1.82,1.49,3.8,1.9,5.8
			c0.25,1.23,0.43,2.47,0.27,3.72c-0.08,0.6,0.02,1.39-0.91,1.53c0,0,0.02,0.01,0.02,0.01c-0.01-0.2,0.07-0.45-0.25-0.49
			L118.91,30.4z"/>
		<path class="st0" d="M12.49,29.07c-0.01,0.08-0.02,0.17-0.04,0.25c-0.15,0.45-0.31,0.89-0.46,1.34c-0.89-0.62-0.71-1.58-0.7-2.44
			c0.06-3.02,1.01-5.83,2.18-8.59C13.88,22.86,13.52,26,12.49,29.07z"/>
		<path class="st0" d="M110.59,27.11c3.08-0.17,4.87,1.39,6.33,3.46c0.32,0.45,1.09,1.06,0.55,1.55c-0.51,0.48-1.25-0.11-1.77-0.49
			C113.95,30.34,112.4,28.82,110.59,27.11z"/>
		<path class="st0" d="M101.32,10.59c-0.02,0.12-0.04,0.24-0.05,0.37c-1.82-0.24-3.38-1.16-5.02-1.87
			c-1.75-0.75-3.48-1.53-5.26-2.31C94.19,6.25,99.74,8.32,101.32,10.59z"/>
		<path class="st0" d="M20.86,26.98c-2,1.7-3.58,3.38-5.51,4.65c-0.23,0.15-0.48,0.27-0.74,0.36c-0.3,0.1-0.66,0.2-0.88-0.06
			c-0.21-0.25,0.05-0.51,0.19-0.73c1.18-2.03,2.74-3.6,5.12-4.16c0.23-0.05,0.46-0.11,0.69-0.12C19.99,26.9,20.25,26.94,20.86,26.98
			z"/>
		<path class="st0" d="M30.08,10.66c2.67-2.91,6.13-3.71,9.91-3.67c-3.21,1.3-6.18,3.2-9.63,3.93
			C30.27,10.83,30.18,10.75,30.08,10.66z"/>
		<path class="st0" d="M17.39,20.58c-0.39-3.59,1.51-6.38,3.32-9.2C20.52,14.77,19.4,17.83,17.39,20.58z"/>
		<path class="st0" d="M113.93,20.94c-1.83-2.91-2.97-5.95-3.26-9.37C112.71,13.17,114.72,18.87,113.93,20.94z"/>
		<path class="st0" d="M18.79,21.94c0.61,0.27,0.78-0.34,1.08-0.59c1.79-1.48,3.72-2.23,6.27-1.3c-2.07,1.11-3.93,2.19-6.04,2.76
			c-0.73,0.2-1.13-0.2-1.3-0.88C18.8,21.93,18.79,21.94,18.79,21.94z"/>
		<path class="st0" d="M105.35,20.15c2.29-1,5.56,0.03,6.87,2.03c0.37,0.55,0.1,0.69-0.39,0.72c-0.47,0.03-0.92-0.02-1.37-0.2
			C108.73,21.99,107.09,21.13,105.35,20.15z"/>
		<path class="st2" d="M66.92,86.17c0.38-0.13,0.69-0.23,0.99-0.34c0.68-0.26,1.85-0.24,0.57-1.4c-0.44-0.4-0.27-1.19,0.24-1.69
			c0.54-0.53,1.21-0.84,1.92-1.07c0.32-0.1,0.65-0.11,0.78,0.27c0.12,0.35,0.08,0.7-0.33,0.88c-0.14,0.06-0.28,0.13-0.43,0.17
			c-0.32,0.09-0.8,0.09-0.8,0.49c0,0.41,0.45,0.46,0.81,0.48c0.33,0.02,0.64,0.14,0.74,0.47c0.12,0.4-0.19,0.65-0.45,0.88
			C70.27,85.89,68,86.39,66.92,86.17z"/>
		<path class="st2" d="M82.04,70.84c-1.03,0-1.71-0.65-1.71-1.64c0.01-0.93,0.77-1.66,1.74-1.66c0.93-0.01,1.74,0.78,1.74,1.69
			C83.8,70.14,83.03,70.84,82.04,70.84z"/>
		<path class="st0" d="M98.9,14.85c1.76-1.46,4.83-1.46,6.32-0.14c0.42,0.37,0.27,0.59-0.1,0.78c-0.5,0.25-1.05,0.22-1.6,0.17
			C102.01,15.52,100.52,15.29,98.9,14.85z"/>
		<path class="st2" d="M90.54,82.38c0.02,0.94-0.7,1.69-1.66,1.73c-0.92,0.04-1.75-0.72-1.78-1.63c-0.03-0.95,0.67-1.65,1.68-1.69
			C89.78,80.76,90.52,81.42,90.54,82.38z"/>
		<path class="st0" d="M32.57,14.93c-1.96,0.33-3.8,0.79-5.73,0.68c-0.38-0.02-0.75-0.17-0.83-0.53c-0.09-0.4,0.37-0.44,0.61-0.59
			C28.62,13.32,31,13.47,32.57,14.93z"/>
		<path class="st1" d="M13.61,87.24c1.1,0.33,2.2,0.39,3.3,0.01c0.07,0.14,0.13,0.29,0.2,0.43c-1.16,0.34-2.31,0.3-3.47,0
			C13.63,87.54,13.62,87.39,13.61,87.24z"/>
		<path class="st1" d="M30.08,10.66c0.1,0.09,0.19,0.17,0.29,0.26c-1,0.66-2,1.33-2.99,1.99c-0.05-0.06-0.1-0.11-0.14-0.17
			C28.05,11.87,29.14,11.37,30.08,10.66z"/>
		<path class="st2" d="M8.11,85.94c-0.07-0.1-0.24-0.19-0.05-0.31c0.03-0.02,0.14,0.1,0.21,0.16C8.22,85.83,8.17,85.89,8.11,85.94z"
			/>
		<path class="st4" d="M35.09,99.75c-0.26,0.55-0.53,1.1-0.77,1.67c-0.15,0.34-0.32,0.51-0.71,0.35c-0.41-0.17-0.35-0.46-0.21-0.76
			c0.46-1.03,0.93-2.05,1.4-3.07c0.16-0.34,0.26-0.79,0.83-0.45c0.39,0.23,0.93,0.27,0.76,0.95c-0.19,0.79-0.34,1.58-0.3,2.49
			c0.49-0.63,1.01-1.24,1.45-1.91c0.44-0.66,0.84-0.24,1.29-0.07c0.66,0.25,0.23,0.63,0.11,0.93c-0.39,0.93-0.83,1.84-1.25,2.76
			c-0.17,0.35-0.21,0.91-0.85,0.6c-0.69-0.34-0.07-0.69-0.01-1.04c0.06-0.37,0.46-0.65,0.27-1.1c-0.48,0.25-0.69,0.74-0.99,1.13
			c-0.23,0.3-0.45,0.51-0.87,0.31c-0.4-0.19-0.46-0.43-0.34-0.84c0.17-0.59,0.25-1.21,0.37-1.81
			C35.21,99.82,35.15,99.78,35.09,99.75z"/>
		<path class="st4" d="M57.16,105.78c-0.4,0.88-0.22,1.56-0.37,2.2c-0.07,0.29-0.09,0.65-0.55,0.59c-0.46-0.06-0.55-0.32-0.49-0.74
			c0.15-1.08,0.27-2.17,0.41-3.25c0.04-0.28-0.11-0.71,0.36-0.72c0.37-0.01,0.78-0.02,0.98,0.45c0.33,0.82,0.7,1.63,1.16,2.72
			c0.13-0.92,0.25-1.57,0.31-2.22c0.04-0.38,0.04-0.7,0.57-0.66c0.58,0.05,0.43,0.45,0.4,0.77c-0.09,1.09-0.19,2.17-0.32,3.26
			c-0.03,0.28,0,0.66-0.47,0.67c-0.38,0.01-0.68-0.06-0.85-0.46C57.96,107.57,57.59,106.76,57.16,105.78z"/>
		<path class="st4" d="M33.9,97.79c-0.04,1.41-1.31,2.82-2.5,2.76c-1.19-0.06-2.26-1.13-2.25-2.26c0.01-1.37,1.28-2.82,2.46-2.81
			C32.85,95.49,33.93,96.58,33.9,97.79z M31.74,96.5c-0.8,0.04-1.62,1.12-1.53,1.98c0.08,0.69,0.48,1.05,1.18,1.03
			c0.74-0.02,1.57-1.13,1.49-1.96C32.81,96.84,32.32,96.59,31.74,96.5z"/>
		<path class="st4" d="M93.69,101.28c0.68-0.3,1.2-0.48,1.67-0.74c0.34-0.18,0.48-0.07,0.64,0.21c0.18,0.33,0.05,0.48-0.26,0.62
			c-0.71,0.31-1.44,0.61-2.12,0.98c-0.93,0.5-1.16,0.03-1.03-0.76c0.17-1.03,0.45-2.04,0.72-3.24c-0.56,0.24-0.99,0.43-1.43,0.61
			c-0.26,0.1-0.51,0.35-0.76-0.12c-0.27-0.53,0.11-0.61,0.4-0.75c0.6-0.29,1.2-0.55,1.81-0.81c0.29-0.13,0.59-0.47,0.92-0.18
			c0.34,0.29,0.26,0.72,0.18,1.1C94.22,99.18,93.97,100.15,93.69,101.28z"/>
		<path class="st4" d="M98.36,95.77c-0.68,0.37-1.12,0.61-1.56,0.84c-0.24,0.12-0.44,0.09-0.6-0.15c-0.18-0.29-0.12-0.51,0.17-0.67
			c0.78-0.43,1.55-0.88,2.36-1.26c0.67-0.32,0.74,0.29,0.71,0.66c-0.07,0.89-0.24,1.77-0.39,2.65c-0.04,0.26-0.16,0.52,0,0.83
			c0.48-0.26,0.96-0.52,1.43-0.78c0.27-0.15,0.49-0.17,0.69,0.14c0.22,0.34,0.04,0.51-0.22,0.66c-0.78,0.44-1.53,0.96-2.36,1.25
			c-0.97,0.34-0.82-0.5-0.77-1.02C97.93,97.95,98.14,97.01,98.36,95.77z"/>
		<path class="st4" d="M85.97,105.06c0.05,0.29-0.15,0.4-0.39,0.48c-0.74,0.24-1.48,0.47-2.21,0.71c-0.44,0.14-0.6-0.07-0.73-0.48
			c-0.32-1.08-0.71-2.13-1.05-3.2c-0.1-0.33-0.19-0.64,0.32-0.83c0.56-0.21,0.59,0.18,0.7,0.48c0.19,0.51,0.41,1.02,0.49,1.55
			c0.18,1.19,0.69,1.62,1.84,1C85.35,104.55,85.78,104.43,85.97,105.06z"/>
		<path class="st4" d="M53.84,107.46c0.18-1.15,0.35-2.3,0.55-3.44c0.05-0.31,0.15-0.62,0.61-0.49c0.36,0.1,0.53,0.28,0.46,0.66
			c-0.2,1.18-0.38,2.37-0.59,3.55c-0.05,0.31-0.14,0.57-0.61,0.48C53.75,108.12,53.78,107.82,53.84,107.46z"/>
		<path class="st4" d="M97.52,100.13c0.08,0.48-0.26,0.5-0.47,0.63c-0.29,0.18-0.41-0.02-0.52-0.24c-0.57-1.14-1.15-2.27-1.73-3.4
			c-0.17-0.33-0.02-0.51,0.25-0.64c0.21-0.1,0.47-0.24,0.61,0.04C96.3,97.73,96.92,98.97,97.52,100.13z"/>
		<path class="st4" d="M86.21,103.88c-0.46,0.02-0.55-0.37-0.5-0.55c0.19-0.68,0.9-0.59,1.4-0.78c0.35-0.13,0.47,0.41,0.44,0.53
			C87.36,103.77,86.58,103.55,86.21,103.88z"/>
		<path class="st0" d="M112.57,85.36c-0.03,0.1-0.06,0.2-0.09,0.3c-0.03-0.02-0.06-0.04-0.09-0.06
			C112.45,85.52,112.5,85.44,112.57,85.36C112.56,85.36,112.57,85.36,112.57,85.36z"/>
		<path class="st4" d="M70.6,106.75c-0.11-0.22-0.36-0.33-0.3-0.69c0.24-1.58-0.1-1.94-1.76-1.88c-0.13,0.01-0.36,0.05-0.59,0.04
			c-1.01-0.06-1.36,0.37-1.2,1.38c0.15,0.96,0.17,1.94,0.23,2.91c0.02,0.3,0.08,0.57,0.45,0.53c0.81-0.07,1.65-0.09,2.43-0.28
			C70.68,108.55,70.99,107.56,70.6,106.75z M67.82,105.61c-0.03-0.64,0.46-0.48,0.8-0.51c0.37-0.02,0.88-0.08,0.85,0.46
			c-0.01,0.12-0.04,0.21-0.1,0.28c-0.17,0.2-0.52,0.18-0.8,0.19c-0.08,0-0.17,0.01-0.25,0.01c-0.17,0.01-0.32-0.01-0.41-0.14
			C67.85,105.84,67.82,105.74,67.82,105.61z M68.65,108.02c-0.64,0.15-0.72-0.14-0.74-0.55c-0.04-0.78,0.55-0.48,0.9-0.52
			c0.38-0.05,0.89-0.08,0.89,0.46C69.68,108.18,68.92,107.84,68.65,108.02z"/>
		<path class="st5" d="M52.99,103.35c-0.85-0.41-1.82-0.75-2.69-0.55c-0.61,0.14-0.37,1.15-0.58,1.75c-0.08,0.22-0.1,0.45-0.14,0.68
			c-0.45,2.22-0.31,2.39,2.1,2.48c0.58,0.08,1.22-0.08,1.39-0.7c0.25-0.95,0.15-1.98,0.45-2.95
			C53.58,103.84,53.29,103.5,52.99,103.35z M51.34,106.76c-0.3-0.14-0.95,0.15-0.9-0.61c0.03-0.35,0.1-0.73,0.62-0.58
			c0.44,0.13,1.1,0.01,1.1,0.74C52.17,106.82,51.76,106.78,51.34,106.76z M51.66,104.83c-0.23-0.23-0.89,0.08-0.85-0.59
			c0.02-0.32,0.17-0.59,0.61-0.4c0.38,0.17,1.03-0.03,1,0.67C52.41,104.94,52.01,104.85,51.66,104.83z"/>
		<path class="st4" d="M46.36,101.57c-0.51-0.19-1.04-0.31-1.55-0.49c-0.49-0.18-0.76-0.15-0.9,0.46c-0.25,1.05-0.61,2.08-0.93,3.12
			c-0.11,0.37-0.37,0.75,0.26,0.89c0.56,0.13,0.63-0.23,0.74-0.64c0.12-0.45,0.14-1.03,0.94-0.77c0.74,0.24,0.78,0.63,0.52,1.24
			c-0.28,0.65,0.06,0.93,0.67,1.04c0.38,0.08,0.24-0.26,0.34-0.43c0.39-0.66-0.09-1.49,0.5-2.14
			C47.78,102.92,47.52,102.02,46.36,101.57z M45.72,103.44c-0.41-0.07-0.99,0.03-1.07-0.58c-0.04-0.31,0.01-0.72,0.5-0.74
			c0.5-0.02,1.14,0.41,1.15,0.8C46.28,103.25,46.09,103.5,45.72,103.44z"/>
		<path class="st2" d="M31.74,96.5c0.58,0.08,1.07,0.34,1.14,1.05c0.09,0.83-0.75,1.94-1.49,1.96c-0.7,0.02-1.1-0.34-1.18-1.03
			C30.12,97.62,30.94,96.54,31.74,96.5z"/>
		<path class="st4" d="M73.22,103.7c-2.01,0.12-2.01,0.12-1.78,2.32c0.07,0.66,0.17,1.31,0.26,1.97c0.04,0.27,0.05,0.54,0.39,0.64
			c1.59,0.51,3.36-0.77,3.35-2.44C75.45,104.51,74.64,103.61,73.22,103.7z M73.1,107.61c-0.4,0.04-0.42-0.24-0.46-0.52
			c-0.08-0.54-0.14-1.08-0.24-1.61c-0.15-0.73,0.24-0.9,0.86-0.86c1.13,0.03,1.08,0.96,1.15,1.68
			C74.48,107.15,73.9,107.53,73.1,107.61z"/>
		<path class="st4" d="M81.78,105.92c-0.63-0.98-1.29-1.94-1.91-2.92c-0.23-0.37-0.47-0.59-0.94-0.45c-0.42,0.12-0.65,0.32-0.67,0.8
			c-0.05,1.01-0.17,2.01-0.26,3.02c0,0,0.01,0,0.01,0c-0.01,0.12-0.04,0.24-0.02,0.35c0.06,0.3-0.34,0.79,0.18,0.88
			c0.38,0.06,0.74-0.13,0.83-0.72c0.12-0.74,1.33-0.99,1.84-0.38c0.35,0.41,0.72,0.35,1.03,0.18
			C82.32,106.44,81.94,106.15,81.78,105.92z M79.41,105.37c-0.53-0.3-0.08-0.79-0.15-1.22c0.37,0.29,0.7,0.6,0.65,1.08
			C79.9,105.3,79.52,105.43,79.41,105.37z"/>
		<path class="st4" d="M92.01,102.53c-0.77-0.87-1.57-1.72-2.32-2.61c-0.29-0.33-0.56-0.51-0.99-0.31
			c-0.39,0.18-0.59,0.41-0.55,0.89c0.1,1,0.13,2.02,0.19,3.02c0,0,0.01,0,0.01,0c0.01,0.12,0,0.24,0.04,0.35
			c0.11,0.29-0.22,0.83,0.31,0.84c0.38,0.01,0.71-0.23,0.72-0.83c0.01-0.75,1.17-1.18,1.77-0.65c0.41,0.35,0.76,0.24,1.04,0.03
			C92.61,102.97,92.19,102.74,92.01,102.53z M89.58,102.34c-0.57-0.22-0.19-0.77-0.33-1.18c0.4,0.23,0.78,0.49,0.8,0.97
			C90.06,102.2,89.7,102.39,89.58,102.34z"/>
		<path class="st4" d="M65.86,108.63c-0.34-1.11-0.71-2.22-1.03-3.34c-0.12-0.42-0.29-0.7-0.78-0.7c-0.43,0-0.71,0.13-0.87,0.59
			c-0.33,0.95-0.72,1.89-1.09,2.83c0,0,0.01,0,0.01,0c-0.04,0.11-0.1,0.22-0.11,0.33c-0.02,0.31-0.54,0.67-0.07,0.9
			c0.35,0.17,0.75,0.08,1-0.46c0.32-0.68,1.55-0.58,1.88,0.14c0.22,0.49,0.59,0.53,0.93,0.46C66.23,109.28,65.95,108.9,65.86,108.63
			z M63.74,107.44c-0.43-0.43,0.15-0.78,0.19-1.21c0.27,0.38,0.51,0.77,0.33,1.21C64.23,107.51,63.83,107.54,63.74,107.44z"/>
		<path class="st4" d="M41.92,104.69c0.04-1.16,0.06-2.33,0.12-3.49c0.02-0.44-0.05-0.75-0.5-0.91c-0.41-0.14-0.71-0.11-1.01,0.27
			c-0.62,0.8-1.3,1.55-1.95,2.32c0,0,0.01,0.01,0.01,0.01c-0.07,0.09-0.17,0.17-0.21,0.28c-0.12,0.28-0.73,0.45-0.36,0.82
			c0.27,0.27,0.68,0.32,1.09-0.11c0.52-0.54,1.65-0.04,1.73,0.75c0.05,0.54,0.38,0.7,0.73,0.74
			C42.06,105.42,41.91,104.97,41.92,104.69z M40.3,102.87c-0.26-0.55,0.39-0.69,0.58-1.08c0.13,0.45,0.23,0.89-0.09,1.26
			C40.75,103.1,40.36,102.99,40.3,102.87z"/>
		<path class="st2" d="M49.19,70.39c-1.08-0.01-1.79-0.66-1.75-1.59c0.04-0.84,0.81-1.52,1.74-1.52c0.99-0.01,1.81,0.7,1.82,1.57
			C51.01,69.74,50.24,70.41,49.19,70.39z"/>
	</g>
	<g>
		<path class="st2" d="M222.21,59.77c-1.08,0-2-0.17-2.76-0.52s-1.35-0.85-1.75-1.51c-0.4-0.66-0.61-1.45-0.61-2.37
			c0-0.99,0.22-1.83,0.67-2.51c0.45-0.69,1.06-1.21,1.85-1.57c0.79-0.36,1.7-0.54,2.73-0.54h0.75v-0.97h2.35v8.06h2.22
			c0.06,0,0.09,0.02,0.09,0.07v1.78c0,0.06-0.03,0.09-0.09,0.09H222.21z M223.09,57.83v-5.14h-0.7c-0.92,0-1.63,0.23-2.13,0.7
			s-0.75,1.12-0.75,1.98c0,0.78,0.23,1.39,0.7,1.82c0.46,0.43,1.13,0.64,2,0.64H223.09z M221.1,48.43c-0.34,0-0.62-0.11-0.84-0.32
			c-0.21-0.21-0.32-0.52-0.32-0.93c0-0.4,0.11-0.71,0.32-0.93c0.21-0.21,0.49-0.32,0.84-0.32c0.37,0,0.65,0.11,0.85,0.33
			c0.2,0.22,0.3,0.53,0.3,0.92s-0.1,0.7-0.31,0.92C221.74,48.32,221.46,48.43,221.1,48.43z M224.24,48.43
			c-0.35,0-0.64-0.11-0.84-0.33c-0.21-0.22-0.31-0.53-0.31-0.92s0.1-0.7,0.31-0.92c0.21-0.22,0.49-0.33,0.84-0.33
			c0.37,0,0.65,0.11,0.85,0.33c0.2,0.22,0.3,0.53,0.3,0.92c0,0.38-0.1,0.68-0.31,0.91C224.88,48.32,224.6,48.43,224.24,48.43z"/>
		<path class="st2" d="M240.23,59.77c-0.54,0-1.04-0.11-1.51-0.32c-0.47-0.21-0.94-0.55-1.4-1.02c-0.32,0.43-0.72,0.76-1.2,0.99
			s-1.06,0.35-1.73,0.35h-6.9c-0.06,0-0.09-0.03-0.09-0.09V57.9c0-0.05,0.03-0.07,0.09-0.07h2.4v-5.65h2.35v5.65h1.69
			c0.61,0,1.06-0.18,1.36-0.53c0.29-0.35,0.44-0.89,0.44-1.6v-3.52h2.35v3.71c0,0.12,0,0.25-0.01,0.38
			c-0.01,0.13-0.02,0.25-0.03,0.38c0.31,0.44,0.61,0.75,0.93,0.93c0.31,0.18,0.72,0.27,1.24,0.27h1.12v-7.08h2.35v9.03H240.23z"/>
		<path class="st2" d="M247.37,64.18c-0.51,0-1-0.06-1.46-0.19c-0.46-0.13-0.93-0.35-1.42-0.67l0.9-1.6
			c0.31,0.18,0.58,0.31,0.81,0.37s0.5,0.09,0.81,0.09c0.5,0,0.91-0.2,1.21-0.6c0.31-0.4,0.46-0.9,0.46-1.51v-9.32H251v9.38
			c0,0.83-0.15,1.55-0.44,2.16c-0.29,0.61-0.71,1.07-1.26,1.4C248.76,64.01,248.11,64.18,247.37,64.18z"/>
		<path class="st2" d="M253.39,57.83h6.13c-0.11-0.56-0.24-1.08-0.39-1.56c-0.15-0.48-0.32-0.91-0.5-1.28
			c-0.35-0.75-0.81-1.4-1.38-1.96c-0.56-0.56-1.25-1.05-2.06-1.45l0.88-2.18c1.04,0.45,1.94,1.06,2.71,1.83
			c0.76,0.77,1.4,1.7,1.92,2.79c0.51,1.1,0.91,2.37,1.17,3.83h2.28c0.06,0,0.09,0.02,0.09,0.07v1.78c0,0.06-0.03,0.09-0.09,0.09
			h-10.75V57.83z"/>
		<path class="st2" d="M263.96,59.77c-0.06,0-0.09-0.03-0.09-0.09V57.9c0-0.05,0.03-0.07,0.09-0.07h2.15
			c-0.18-0.45-0.32-0.91-0.42-1.36c-0.1-0.45-0.15-0.91-0.15-1.38c0-0.53,0.08-1.08,0.24-1.65c0.16-0.58,0.36-1.08,0.61-1.52
			c0.55-0.35,1.14-0.63,1.78-0.82c0.64-0.19,1.22-0.29,1.76-0.29c0.81,0,1.54,0.17,2.2,0.51c0.65,0.35,1.15,0.85,1.5,1.5
			c0.35,0.64,0.53,1.39,0.53,2.23c0,0.46-0.05,0.91-0.16,1.32c-0.1,0.42-0.25,0.8-0.45,1.16c-0.4,0.71-0.97,1.26-1.7,1.65
			c-0.73,0.39-1.54,0.59-2.43,0.59H263.96z M267.78,55.24c0,0.39,0.04,0.8,0.13,1.23c0.08,0.43,0.21,0.88,0.38,1.36h0.9
			c0.51,0,0.96-0.12,1.35-0.35c0.38-0.23,0.69-0.56,0.91-0.98c0.22-0.42,0.33-0.91,0.33-1.46c0-0.69-0.18-1.24-0.53-1.66
			c-0.35-0.42-0.81-0.63-1.36-0.63c-0.31,0-0.62,0.05-0.94,0.16c-0.32,0.1-0.62,0.25-0.92,0.45c-0.08,0.29-0.15,0.6-0.19,0.91
			C267.8,54.57,267.78,54.9,267.78,55.24z"/>
	</g>
	<g>
		<path class="st2" d="M141.71,82.23c-1.11,0-2.06-0.18-2.84-0.54c-0.79-0.36-1.39-0.88-1.8-1.56c-0.42-0.68-0.62-1.49-0.62-2.44
			c0-1.02,0.23-1.88,0.69-2.59c0.46-0.71,1.1-1.24,1.91-1.62c0.81-0.37,1.75-0.56,2.81-0.56h0.78v-1h2.42v8.3h2.29
			c0.06,0,0.09,0.03,0.09,0.08v1.83c0,0.06-0.03,0.09-0.09,0.09H141.71z M142.62,80.23v-5.29h-0.72c-0.94,0-1.68,0.24-2.19,0.72
			c-0.52,0.48-0.77,1.16-0.77,2.04c0,0.81,0.24,1.43,0.72,1.87c0.48,0.44,1.17,0.66,2.06,0.66H142.62z M140.58,70.55
			c-0.35,0-0.64-0.11-0.86-0.33c-0.22-0.22-0.33-0.54-0.33-0.95s0.11-0.73,0.33-0.96c0.22-0.22,0.51-0.33,0.86-0.33
			c0.38,0,0.67,0.11,0.88,0.34s0.31,0.54,0.31,0.95s-0.11,0.72-0.32,0.95C141.23,70.44,140.94,70.55,140.58,70.55z M143.81,70.55
			c-0.37,0-0.66-0.11-0.87-0.34c-0.21-0.23-0.32-0.54-0.32-0.95s0.11-0.72,0.32-0.95c0.21-0.23,0.5-0.34,0.87-0.34
			c0.38,0,0.67,0.11,0.88,0.34s0.31,0.54,0.31,0.95c0,0.39-0.11,0.7-0.32,0.94C144.47,70.43,144.18,70.55,143.81,70.55z"/>
		<path class="st2" d="M147.14,82.23c-0.06,0-0.09-0.03-0.09-0.09V80.3c0-0.05,0.03-0.08,0.09-0.08h2.25v-7.11h2.42v3.38
			c0.39-0.84,0.84-1.54,1.36-2.1c0.52-0.55,1.09-0.97,1.72-1.25c0.63-0.28,1.32-0.42,2.08-0.42c1.51,0,2.65,0.4,3.42,1.21
			s1.15,2.05,1.15,3.74v4.54H147.14z M159.12,80.23v-2.55c0-1-0.23-1.73-0.68-2.2c-0.45-0.47-1.14-0.71-2.06-0.71
			c-0.59,0-1.16,0.15-1.7,0.44c-0.54,0.3-1.05,0.74-1.52,1.32c-0.47,0.59-0.92,1.32-1.35,2.2v1.49H159.12z"/>
		<path class="st2" d="M169.71,80.23c0.05,0,0.08,0.03,0.08,0.08v1.83c0,0.06-0.03,0.09-0.09,0.09h-4.84V67.87h2.44v12.36H169.71z"
			/>
		<path class="st2" d="M169.5,82.23c-0.06,0-0.09-0.03-0.09-0.09V80.3c0-0.05,0.03-0.08,0.09-0.08h7.79
			c-0.16-0.15-0.32-0.36-0.46-0.63c-0.14-0.27-0.27-0.6-0.39-0.99s-0.21-0.83-0.3-1.32c-0.09-0.47-0.2-0.86-0.33-1.18
			c-0.13-0.32-0.28-0.58-0.45-0.77c-0.17-0.2-0.38-0.34-0.63-0.43s-0.55-0.14-0.89-0.14c-0.44,0-0.87,0.06-1.29,0.18
			c-0.42,0.12-0.85,0.31-1.3,0.56l-0.79-1.81c0.55-0.33,1.14-0.56,1.76-0.71c0.62-0.15,1.27-0.22,1.95-0.22
			c0.39,0,0.75,0.03,1.07,0.08c0.32,0.05,0.61,0.13,0.88,0.25c0.42,0.16,0.77,0.39,1.08,0.68s0.55,0.66,0.76,1.12
			c0.2,0.45,0.35,1,0.45,1.64c0.11,0.64,0.24,1.21,0.37,1.69c0.13,0.49,0.28,0.9,0.44,1.24c0.16,0.34,0.34,0.6,0.53,0.79h1.25
			c0.06,0,0.09,0.03,0.09,0.08v1.83c0,0.06-0.03,0.09-0.09,0.09H169.5z M174.41,71.25c-0.37,0-0.66-0.11-0.87-0.34
			c-0.21-0.23-0.32-0.54-0.32-0.95s0.1-0.72,0.31-0.95c0.21-0.23,0.5-0.34,0.88-0.34s0.67,0.12,0.88,0.35s0.31,0.54,0.31,0.94
			s-0.11,0.7-0.32,0.94C175.07,71.13,174.78,71.25,174.41,71.25z"/>
		<path class="st2" d="M180.78,82.23c-0.06,0-0.09-0.03-0.09-0.09V80.3c0-0.05,0.03-0.08,0.09-0.08h2.4V67.87h2.44v14.36H180.78z"/>
		<path class="st2" d="M189.4,67.87h2.44v14.36h-2.44V67.87z"/>
		<path class="st2" d="M206.11,82.23v0.36c0,0.86-0.15,1.6-0.45,2.22s-0.73,1.11-1.29,1.45c-0.56,0.34-1.23,0.51-1.99,0.51
			c-0.53,0-1.03-0.07-1.5-0.2c-0.47-0.13-0.96-0.36-1.46-0.69l0.93-1.64c0.32,0.19,0.59,0.31,0.83,0.38
			c0.24,0.06,0.52,0.09,0.83,0.09c0.52,0,0.93-0.2,1.25-0.61c0.31-0.41,0.47-0.93,0.47-1.56v-9.6h2.4v7.29h2.42
			c0.06,0,0.09,0.03,0.09,0.08v1.83c0,0.06-0.03,0.09-0.09,0.09H206.11z M205.16,71.25c-0.37,0-0.66-0.11-0.87-0.34
			c-0.21-0.23-0.32-0.54-0.32-0.95s0.1-0.72,0.31-0.95s0.5-0.34,0.88-0.34s0.67,0.12,0.88,0.35s0.31,0.54,0.31,0.94
			s-0.11,0.7-0.32,0.94S205.53,71.25,205.16,71.25z"/>
		<path class="st2" d="M208.34,82.23c-0.06,0-0.09-0.03-0.09-0.09V80.3c0-0.05,0.03-0.08,0.09-0.08h3.42v-7.29h2.44v9.3H208.34z
			 M209.77,86.64c-0.37,0-0.66-0.11-0.88-0.33c-0.22-0.22-0.33-0.54-0.33-0.96c0-0.4,0.11-0.72,0.33-0.94s0.51-0.34,0.88-0.34
			s0.65,0.11,0.86,0.34s0.31,0.54,0.31,0.94c0,0.42-0.11,0.73-0.32,0.96C210.41,86.52,210.13,86.64,209.77,86.64z M213.01,86.64
			c-0.38,0-0.67-0.11-0.89-0.34s-0.32-0.54-0.32-0.95c0-0.39,0.11-0.7,0.32-0.94c0.21-0.23,0.51-0.35,0.89-0.35
			c0.37,0,0.65,0.12,0.86,0.35c0.21,0.23,0.31,0.54,0.31,0.94s-0.1,0.7-0.31,0.94C213.66,86.52,213.37,86.64,213.01,86.64z"/>
		<path class="st2" d="M221.83,82.23v0.36c0,0.86-0.15,1.6-0.45,2.22s-0.73,1.11-1.29,1.45c-0.56,0.34-1.23,0.51-1.99,0.51
			c-0.53,0-1.03-0.07-1.5-0.2c-0.47-0.13-0.96-0.36-1.46-0.69l0.93-1.64c0.32,0.19,0.59,0.31,0.83,0.38
			c0.24,0.06,0.52,0.09,0.83,0.09c0.52,0,0.93-0.2,1.25-0.61c0.31-0.41,0.47-0.93,0.47-1.56v-9.6h2.4v7.29h2.42
			c0.06,0,0.09,0.03,0.09,0.08v1.83c0,0.06-0.03,0.09-0.09,0.09H221.83z M220.89,71.25c-0.37,0-0.66-0.11-0.87-0.34
			c-0.21-0.23-0.32-0.54-0.32-0.95s0.1-0.72,0.31-0.95s0.5-0.34,0.88-0.34s0.67,0.12,0.88,0.35s0.31,0.54,0.31,0.94
			s-0.11,0.7-0.32,0.94S221.25,71.25,220.89,71.25z"/>
		<path class="st2" d="M233.27,82.23c-0.57,0-1.17-0.09-1.81-0.28c-0.64-0.19-1.2-0.43-1.69-0.74c-0.57,0.34-1.14,0.6-1.73,0.77
			s-1.18,0.25-1.79,0.25h-2.19c-0.06,0-0.09-0.03-0.09-0.09V80.3c0-0.05,0.03-0.08,0.09-0.08h1.98c0.34,0,0.69-0.03,1.04-0.1
			s0.65-0.15,0.89-0.25c-0.2-0.15-0.41-0.35-0.62-0.59c-0.21-0.24-0.43-0.52-0.66-0.85c-0.44-0.63-0.83-1.32-1.15-2.07
			c-0.33-0.75-0.55-1.46-0.66-2.14c0.49-0.42,1.03-0.78,1.61-1.08c0.58-0.3,1.17-0.53,1.79-0.69c0.61-0.16,1.21-0.24,1.8-0.24
			c0.87,0,1.7,0.1,2.5,0.31c0.79,0.21,1.52,0.51,2.17,0.9c0,0.89-0.13,1.75-0.39,2.57c-0.26,0.82-0.62,1.56-1.1,2.21
			s-1.04,1.2-1.69,1.64c0.28,0.13,0.57,0.22,0.87,0.28c0.3,0.06,0.62,0.09,0.96,0.09h2.21c0.06,0,0.09,0.03,0.09,0.08v1.83
			c0,0.06-0.03,0.09-0.09,0.09H233.27z M229.81,78.79c0.82-0.5,1.44-1.1,1.86-1.78c0.42-0.68,0.66-1.46,0.71-2.34
			c-0.33-0.15-0.69-0.26-1.08-0.34c-0.39-0.08-0.81-0.11-1.25-0.11c-0.3,0-0.61,0.03-0.94,0.1s-0.63,0.17-0.94,0.29
			c-0.3,0.13-0.57,0.27-0.81,0.43c0.13,0.5,0.31,0.99,0.54,1.46c0.23,0.47,0.51,0.9,0.83,1.29S229.42,78.53,229.81,78.79z"/>
		<path class="st2" d="M235.42,82.23c-0.06,0-0.09-0.03-0.09-0.09V80.3c0-0.05,0.03-0.08,0.09-0.08h2.4V67.87h2.44v14.36H235.42z"/>
		<path class="st2" d="M244.04,67.87h2.44v14.36h-2.44V67.87z"/>
		<path class="st2" d="M255.65,80.23h6.31c-0.11-0.58-0.25-1.11-0.41-1.61c-0.16-0.49-0.33-0.93-0.52-1.32
			c-0.37-0.77-0.84-1.44-1.42-2.02c-0.58-0.58-1.29-1.08-2.12-1.49l0.91-2.25c1.07,0.47,2,1.09,2.79,1.88
			c0.79,0.79,1.45,1.75,1.98,2.87s0.93,2.44,1.21,3.94h2.34c0.06,0,0.09,0.03,0.09,0.08v1.83c0,0.06-0.03,0.09-0.09,0.09h-11.08
			V80.23z"/>
		<path class="st2" d="M266.53,82.23c-0.06,0-0.09-0.03-0.09-0.09V80.3c0-0.05,0.03-0.08,0.09-0.08h2.4v-7.29h2.44v7.29h2.46
			c0.06,0,0.09,0.03,0.09,0.08v1.83c0,0.06-0.03,0.09-0.09,0.09H266.53z M270.09,86.64c-0.38,0-0.67-0.11-0.89-0.34
			s-0.32-0.54-0.32-0.95c0-0.39,0.11-0.7,0.32-0.94c0.21-0.23,0.51-0.35,0.89-0.35c0.37,0,0.65,0.12,0.86,0.35
			c0.21,0.23,0.31,0.54,0.31,0.94s-0.1,0.7-0.31,0.94C270.74,86.52,270.45,86.64,270.09,86.64z"/>
		<path class="st2" d="M273.64,82.23c-0.06,0-0.09-0.03-0.09-0.09V80.3c0-0.05,0.03-0.08,0.09-0.08h2.91
			c-0.3-0.16-0.56-0.4-0.78-0.7c-0.21-0.3-0.38-0.64-0.51-1.02s-0.19-0.78-0.19-1.21c0-0.94,0.21-1.76,0.61-2.44s0.99-1.2,1.73-1.57
			c0.74-0.37,1.63-0.55,2.65-0.55c0.54,0,1.09,0.06,1.65,0.18s1,0.26,1.33,0.42l-0.7,1.95c-0.45-0.2-0.87-0.34-1.25-0.43
			c-0.38-0.08-0.76-0.12-1.13-0.12c-0.54,0-1,0.1-1.37,0.31c-0.37,0.21-0.66,0.5-0.85,0.89c-0.2,0.38-0.29,0.87-0.29,1.45
			c0,0.57,0.1,1.06,0.29,1.48c0.2,0.42,0.47,0.75,0.83,0.99c0.36,0.24,0.78,0.36,1.26,0.36h3.44v2H273.64z"/>
		<path class="st2" d="M302.77,82.23c-0.09,1.51-0.57,2.65-1.44,3.4s-2.15,1.13-3.84,1.13h-1.02c-0.5,0-0.97-0.06-1.41-0.18
			s-0.83-0.29-1.18-0.52c-0.68-0.42-1.2-1-1.56-1.76c-0.36-0.76-0.54-1.62-0.54-2.59c0-0.73,0.08-1.46,0.24-2.18
			c0.16-0.72,0.38-1.39,0.67-1.99h2.17c-0.2,0.63-0.36,1.3-0.47,2.02s-0.17,1.43-0.17,2.14c0,0.95,0.22,1.69,0.67,2.24
			c0.45,0.55,1.05,0.82,1.82,0.82h0.7c0.67,0,1.22-0.11,1.65-0.34s0.76-0.56,0.97-1.01c0.21-0.45,0.32-1,0.32-1.65v-8.83h2.4v7.29
			h2.33c0.06,0,0.09,0.03,0.09,0.08v1.83c0,0.06-0.03,0.09-0.09,0.09H302.77z M297.29,72.93c-0.37,0-0.66-0.12-0.87-0.35
			c-0.21-0.23-0.32-0.54-0.32-0.94c0-0.42,0.1-0.73,0.31-0.96c0.21-0.22,0.5-0.33,0.88-0.33s0.67,0.11,0.88,0.34
			s0.31,0.54,0.31,0.95c0,0.39-0.11,0.7-0.32,0.94C297.94,72.82,297.65,72.93,297.29,72.93z"/>
		<path class="st2" d="M304.9,82.23c-0.06,0-0.09-0.03-0.09-0.09V80.3c0-0.05,0.03-0.08,0.09-0.08h2.4v-7.29h2.44v9.3H304.9z
			 M308.4,86.64c-0.38,0-0.67-0.11-0.89-0.34s-0.32-0.54-0.32-0.95c0-0.39,0.11-0.7,0.32-0.94c0.21-0.23,0.51-0.35,0.89-0.35
			c0.37,0,0.65,0.12,0.86,0.35c0.21,0.23,0.31,0.54,0.31,0.94s-0.1,0.7-0.31,0.94C309.05,86.52,308.77,86.64,308.4,86.64z"/>
		<path class="st2" d="M323.73,82.23v0.36c0,0.86-0.15,1.6-0.45,2.22s-0.73,1.11-1.29,1.45c-0.56,0.34-1.23,0.51-1.99,0.51
			c-0.53,0-1.03-0.07-1.5-0.2c-0.47-0.13-0.96-0.36-1.46-0.69l0.93-1.64c0.32,0.19,0.59,0.31,0.83,0.38
			c0.24,0.06,0.52,0.09,0.83,0.09c0.52,0,0.93-0.2,1.25-0.61c0.31-0.41,0.47-0.93,0.47-1.56v-9.6h2.4v7.29h2.42
			c0.06,0,0.09,0.03,0.09,0.08v1.83c0,0.06-0.03,0.09-0.09,0.09H323.73z"/>
		<path class="st2" d="M328.17,80.23c-0.19-0.47-0.33-0.93-0.43-1.4c-0.1-0.47-0.15-0.94-0.15-1.42c0-0.54,0.08-1.11,0.25-1.7
			c0.16-0.59,0.37-1.12,0.62-1.57c0.57-0.37,1.18-0.65,1.83-0.84s1.26-0.29,1.81-0.29c0.42,0,0.81,0.04,1.19,0.13
			c0.38,0.09,0.74,0.22,1.08,0.4c0.67,0.37,1.18,0.88,1.55,1.54c0.37,0.66,0.55,1.43,0.55,2.3c0,0.37-0.03,0.72-0.08,1.06
			c-0.06,0.34-0.15,0.67-0.29,0.98c0.24,0.3,0.51,0.51,0.82,0.63c0.31,0.12,0.7,0.18,1.18,0.18h0.09c0.06,0,0.09,0.03,0.09,0.08
			v1.83c0,0.06-0.03,0.09-0.09,0.09h-0.09c-0.67,0-1.25-0.09-1.73-0.28c-0.49-0.19-0.94-0.51-1.37-0.96
			c-0.45,0.42-0.98,0.73-1.57,0.94c-0.59,0.21-1.2,0.31-1.83,0.31h-5.63c-0.06,0-0.09-0.03-0.09-0.09V80.3
			c0-0.05,0.03-0.08,0.09-0.08H328.17z M329.89,77.56c0,0.4,0.04,0.83,0.13,1.27c0.09,0.44,0.22,0.91,0.4,1.4h0.93
			c0.53,0,0.99-0.12,1.39-0.36c0.4-0.24,0.71-0.58,0.94-1.01s0.34-0.94,0.34-1.5c0-0.71-0.18-1.28-0.55-1.71s-0.83-0.65-1.4-0.65
			c-0.32,0-0.64,0.05-0.96,0.16c-0.33,0.11-0.64,0.26-0.95,0.46c-0.09,0.3-0.15,0.61-0.2,0.94
			C329.91,76.87,329.89,77.21,329.89,77.56z"/>
		<path class="st2" d="M338,82.23c-0.06,0-0.09-0.03-0.09-0.09V80.3c0-0.05,0.03-0.08,0.09-0.08h2.91c-0.3-0.16-0.56-0.4-0.78-0.7
			c-0.21-0.3-0.38-0.64-0.51-1.02s-0.19-0.78-0.19-1.21c0-0.94,0.21-1.76,0.61-2.44s0.99-1.2,1.73-1.57
			c0.74-0.37,1.63-0.55,2.65-0.55c0.54,0,1.09,0.06,1.65,0.18s1,0.26,1.33,0.42l-0.7,1.95c-0.45-0.2-0.87-0.34-1.25-0.43
			c-0.38-0.08-0.76-0.12-1.13-0.12c-0.54,0-1,0.1-1.37,0.31c-0.37,0.21-0.66,0.5-0.85,0.89c-0.2,0.38-0.29,0.87-0.29,1.45
			c0,0.57,0.1,1.06,0.29,1.48c0.2,0.42,0.47,0.75,0.83,0.99c0.36,0.24,0.78,0.36,1.26,0.36h3.44v2H338z"/>
	</g>
</g>
</svg>
